<svg width="22" height="22" viewBox="0 0 22 22" fill="none" xmlns="http://www.w3.org/2000/svg">
<g id="Frame">
<path id="Vector" d="M19.2298 12.1091C19.2675 11.9343 19.2532 11.7523 19.1887 11.5855C19.1242 11.4187 19.0123 11.2745 18.8668 11.1705L6.0335 2.0038C5.88909 1.89996 5.71756 1.84042 5.53987 1.83246C5.36218 1.8245 5.18601 1.86846 5.03289 1.95897C4.87977 2.04948 4.75632 2.18262 4.67763 2.34214C4.59893 2.50165 4.5684 2.68064 4.58975 2.85722L6.42308 18.4406C6.44419 18.6192 6.51739 18.7877 6.63357 18.9251C6.74976 19.0624 6.90378 19.1625 7.07647 19.2129C7.24915 19.2634 7.43285 19.2619 7.60469 19.2086C7.77653 19.1554 7.9289 19.0528 8.04283 18.9136L11.3538 14.8656L14.4494 19.8706L16.0087 18.9062L12.9314 13.9306L18.513 12.8141C18.6884 12.7797 18.8499 12.6946 18.9773 12.5693C19.1048 12.444 19.1926 12.2839 19.2298 12.1091ZM11.2787 12.3933C11.0706 12.4348 10.8833 12.5472 10.7488 12.7114L7.9915 16.082L6.65225 4.69972L16.0783 11.4326L11.2787 12.3933Z" fill="black"/>
</g>
</svg>
